<?xml version="1.0" encoding="UTF-8"?>
<!-- Generated by jsxcad -->
<!DOCTYPE svg PUBLIC "-//W3C//DTD SVG 1.1 Tiny//EN" "http://www.w3.org/Graphics/SVG/1.1/DTD/svg11-tiny.dtd">
<svg baseProfile="tiny" height="180.00000mm" width="165.00000mm" viewBox="-0.00000 100.00000 165.00000 180.00000" version="1.1" stroke="black" stroke-width=".1" fill="none" xmlns="http://www.w3.org/2000/svg">
<path fill="#000000" stroke="#000000" d="M7.50000 100.00000 L157.50000 100.00000 L157.50000 103.00000 L7.50000 103.00000 z"/>
<path fill="#000000" stroke="#000000" d="M7.50000 177.00000 L157.50000 177.00000 L157.50000 280.00000 L7.50000 280.00000 z"/>
<path fill="#000000" stroke="#000000" d="M0.00000 103.00000 L165.00000 103.00000 L165.00000 177.00000 L0.00000 177.00000 z M19.01295 116.27847 L19.11858 116.64920 L19.31475 117.33770 L19.54762 117.64584 L19.98009 118.21810 L20.30869 118.42122 L20.91893 118.79845 L21.29731 118.86899 L22.00000 119.00000 L22.37837 118.92946 L23.08107 118.79845 L23.40966 118.59532 L24.01991 118.21810 L24.25278 117.90996 L24.68525 117.33770 L24.79088 116.96697 L24.98705 116.27847 L24.95148 115.89358 L24.88541 115.17878 L24.71269 114.83245 L24.39192 114.18928 L24.10655 113.92972 L23.57659 113.44767 L23.21845 113.30900 L22.55335 113.05147 L22.16601 113.05147 L21.44665 113.05147 L21.08852 113.19014 L20.42341 113.44767 L20.13805 113.70724 L19.60808 114.18928 L19.43536 114.53560 L19.11459 115.17878 L19.07902 115.56367 z M24.98705 164.27847 L24.95148 163.89358 L24.88541 163.17878 L24.71269 162.83245 L24.39192 162.18928 L24.10655 161.92972 L23.57659 161.44767 L23.21845 161.30900 L22.55335 161.05147 L22.16601 161.05147 L21.44665 161.05147 L21.08852 161.19014 L20.42341 161.44767 L20.13805 161.70724 L19.60808 162.18928 L19.43536 162.53560 L19.11459 163.17878 L19.07902 163.56367 L19.01295 164.27847 L19.11858 164.64920 L19.31475 165.33770 L19.54762 165.64584 L19.98009 166.21810 L20.30869 166.42122 L20.91893 166.79845 L21.29731 166.86899 L22.00000 167.00000 L22.37837 166.92946 L23.08107 166.79845 L23.40966 166.59532 L24.01991 166.21810 L24.25278 165.90996 L24.68525 165.33770 L24.79088 164.96697 z M145.98705 110.27847 L145.95148 109.89358 L145.88541 109.17878 L145.71269 108.83245 L145.39192 108.18928 L145.10655 107.92972 L144.57659 107.44767 L144.21845 107.30900 L143.55335 107.05147 L143.16601 107.05147 L142.44665 107.05147 L142.08852 107.19014 L141.42341 107.44767 L141.13805 107.70724 L140.60808 108.18928 L140.43536 108.53560 L140.11459 109.17878 L140.07902 109.56367 L140.01295 110.27847 L140.11858 110.64920 L140.31475 111.33770 L140.54762 111.64584 L140.98009 112.21810 L141.30869 112.42122 L141.91893 112.79845 L142.29731 112.86899 L143.00000 113.00000 L143.37837 112.92946 L144.08107 112.79845 L144.40966 112.59532 L145.01991 112.21810 L145.25278 111.90996 L145.68525 111.33770 L145.79088 110.96697 z M145.98705 170.27847 L145.95148 169.89358 L145.88541 169.17878 L145.71269 168.83245 L145.39192 168.18928 L145.10655 167.92972 L144.57659 167.44767 L144.21845 167.30900 L143.55335 167.05147 L143.16601 167.05147 L142.44665 167.05147 L142.08852 167.19014 L141.42341 167.44767 L141.13805 167.70724 L140.60808 168.18928 L140.43536 168.53560 L140.11459 169.17878 L140.07902 169.56367 L140.01295 170.27847 L140.11858 170.64920 L140.31475 171.33770 L140.54762 171.64584 L140.98009 172.21810 L141.30869 172.42122 L141.91893 172.79845 L142.29731 172.86899 L143.00000 173.00000 L143.37837 172.92946 L144.08107 172.79845 L144.40966 172.59532 L145.01991 172.21810 L145.25278 171.90996 L145.68525 171.33770 L145.79088 170.96697 z"/>
<path fill="#000000" stroke="#000000" d="M145.79088 110.96697 L145.68525 111.33770 L145.25278 111.90996 L145.01991 112.21810 L144.40966 112.59532 L144.08107 112.79845 L143.37837 112.92946 L143.00000 113.00000 L142.29731 112.86899 L141.91893 112.79845 L141.30869 112.42122 L140.98009 112.21810 L140.54762 111.64584 L140.31475 111.33770 L140.11858 110.64920 L140.01295 110.27847 L140.07902 109.56367 L140.11459 109.17878 L140.43536 108.53560 L140.60808 108.18928 L141.13805 107.70724 L141.42341 107.44767 L142.08852 107.19014 L142.44665 107.05147 L143.16601 107.05147 L143.55335 107.05147 L144.21845 107.30900 L144.57659 107.44767 L145.10655 107.92972 L145.39192 108.18928 L145.71269 108.83245 L145.88541 109.17878 L145.95148 109.89358 L145.98705 110.27847 z M144.98536 110.24154 L144.92741 109.76541 L144.86946 109.28928 L144.59793 108.89620 L144.32640 108.50312 L143.90212 108.28052 L143.47783 108.05792 L143.00000 108.05792 L142.52217 108.05792 L142.09788 108.28052 L141.67360 108.50312 L141.40207 108.89620 L141.13054 109.28928 L141.07259 109.76541 L141.01464 110.24154 L141.18382 110.68808 L141.35299 111.13462 L141.71274 111.45327 L142.07248 111.77192 L142.53624 111.88596 L143.00000 112.00000 L143.46376 111.88596 L143.92752 111.77192 L144.28726 111.45327 L144.64701 111.13462 L144.81618 110.68808 z"/>
<path fill="#000000" stroke="#000000" d="M144.81618 110.68808 L144.64701 111.13462 L144.28726 111.45327 L143.92752 111.77192 L143.46376 111.88596 L143.00000 112.00000 L142.53624 111.88596 L142.07248 111.77192 L141.71274 111.45327 L141.35299 111.13462 L141.18382 110.68808 L141.01464 110.24154 L141.07259 109.76541 L141.13054 109.28928 L141.40207 108.89620 L141.67360 108.50312 L142.09788 108.28052 L142.52217 108.05792 L143.00000 108.05792 L143.47783 108.05792 L143.90212 108.28052 L144.32640 108.50312 L144.59793 108.89620 L144.86946 109.28928 L144.92741 109.76541 L144.98536 110.24154 z"/>
<path fill="#000000" stroke="#000000" d="M145.79088 170.96697 L145.68525 171.33770 L145.25278 171.90996 L145.01991 172.21810 L144.40966 172.59532 L144.08107 172.79845 L143.37837 172.92946 L143.00000 173.00000 L142.29731 172.86899 L141.91893 172.79845 L141.30869 172.42122 L140.98009 172.21810 L140.54762 171.64584 L140.31475 171.33770 L140.11858 170.64920 L140.01295 170.27847 L140.07902 169.56367 L140.11459 169.17878 L140.43536 168.53560 L140.60808 168.18928 L141.13805 167.70724 L141.42341 167.44767 L142.08852 167.19014 L142.44665 167.05147 L143.16601 167.05147 L143.55335 167.05147 L144.21845 167.30900 L144.57659 167.44767 L145.10655 167.92972 L145.39192 168.18928 L145.71269 168.83245 L145.88541 169.17878 L145.95148 169.89358 L145.98705 170.27847 z M144.98536 170.24154 L144.92741 169.76541 L144.86946 169.28928 L144.59793 168.89620 L144.32640 168.50312 L143.90212 168.28052 L143.47783 168.05792 L143.00000 168.05792 L142.52217 168.05792 L142.09788 168.28052 L141.67360 168.50312 L141.40207 168.89620 L141.13054 169.28928 L141.07259 169.76541 L141.01464 170.24154 L141.18382 170.68808 L141.35299 171.13462 L141.71274 171.45327 L142.07248 171.77192 L142.53624 171.88596 L143.00000 172.00000 L143.46376 171.88596 L143.92752 171.77192 L144.28726 171.45327 L144.64701 171.13462 L144.81618 170.68808 z"/>
<path fill="#000000" stroke="#000000" d="M144.81618 170.68808 L144.64701 171.13462 L144.28726 171.45327 L143.92752 171.77192 L143.46376 171.88596 L143.00000 172.00000 L142.53624 171.88596 L142.07248 171.77192 L141.71274 171.45327 L141.35299 171.13462 L141.18382 170.68808 L141.01464 170.24154 L141.07259 169.76541 L141.13054 169.28928 L141.40207 168.89620 L141.67360 168.50312 L142.09788 168.28052 L142.52217 168.05792 L143.00000 168.05792 L143.47783 168.05792 L143.90212 168.28052 L144.32640 168.50312 L144.59793 168.89620 L144.86946 169.28928 L144.92741 169.76541 L144.98536 170.24154 z"/>
<path fill="#000000" stroke="#000000" d="M24.79088 164.96697 L24.68525 165.33770 L24.25278 165.90996 L24.01991 166.21810 L23.40966 166.59532 L23.08107 166.79845 L22.37837 166.92946 L22.00000 167.00000 L21.29731 166.86899 L20.91893 166.79845 L20.30869 166.42122 L19.98009 166.21810 L19.54762 165.64584 L19.31475 165.33770 L19.11858 164.64920 L19.01295 164.27847 L19.07902 163.56367 L19.11459 163.17878 L19.43536 162.53560 L19.60808 162.18928 L20.13805 161.70724 L20.42341 161.44767 L21.08852 161.19014 L21.44665 161.05147 L22.16601 161.05147 L22.55335 161.05147 L23.21845 161.30900 L23.57659 161.44767 L24.10655 161.92972 L24.39192 162.18928 L24.71269 162.83245 L24.88541 163.17878 L24.95148 163.89358 L24.98705 164.27847 z M23.98536 164.24154 L23.92741 163.76541 L23.86946 163.28928 L23.59793 162.89620 L23.32640 162.50312 L22.90212 162.28052 L22.47783 162.05792 L22.00000 162.05792 L21.52217 162.05792 L21.09788 162.28052 L20.67360 162.50312 L20.40207 162.89620 L20.13054 163.28928 L20.07259 163.76541 L20.01464 164.24154 L20.18382 164.68808 L20.35299 165.13462 L20.71274 165.45327 L21.07248 165.77192 L21.53624 165.88596 L22.00000 166.00000 L22.46376 165.88596 L22.92752 165.77192 L23.28726 165.45327 L23.64701 165.13462 L23.81618 164.68808 z"/>
<path fill="#000000" stroke="#000000" d="M23.81618 164.68808 L23.64701 165.13462 L23.28726 165.45327 L22.92752 165.77192 L22.46376 165.88596 L22.00000 166.00000 L21.53624 165.88596 L21.07248 165.77192 L20.71274 165.45327 L20.35299 165.13462 L20.18382 164.68808 L20.01464 164.24154 L20.07259 163.76541 L20.13054 163.28928 L20.40207 162.89620 L20.67360 162.50312 L21.09788 162.28052 L21.52217 162.05792 L22.00000 162.05792 L22.47783 162.05792 L22.90212 162.28052 L23.32640 162.50312 L23.59793 162.89620 L23.86946 163.28928 L23.92741 163.76541 L23.98536 164.24154 z"/>
<path fill="#000000" stroke="#000000" d="M24.79088 116.96697 L24.68525 117.33770 L24.25278 117.90996 L24.01991 118.21810 L23.40966 118.59532 L23.08107 118.79845 L22.37837 118.92946 L22.00000 119.00000 L21.29731 118.86899 L20.91893 118.79845 L20.30869 118.42122 L19.98009 118.21810 L19.54762 117.64584 L19.31475 117.33770 L19.11858 116.64920 L19.01295 116.27847 L19.07902 115.56367 L19.11459 115.17878 L19.43536 114.53560 L19.60808 114.18928 L20.13805 113.70724 L20.42341 113.44767 L21.08852 113.19014 L21.44665 113.05147 L22.16601 113.05147 L22.55335 113.05147 L23.21845 113.30900 L23.57659 113.44767 L24.10655 113.92972 L24.39192 114.18928 L24.71269 114.83245 L24.88541 115.17878 L24.95148 115.89358 L24.98705 116.27847 z M23.98536 116.24154 L23.92741 115.76541 L23.86946 115.28928 L23.59793 114.89620 L23.32640 114.50312 L22.90212 114.28052 L22.47783 114.05792 L22.00000 114.05792 L21.52217 114.05792 L21.09788 114.28052 L20.67360 114.50312 L20.40207 114.89620 L20.13054 115.28928 L20.07259 115.76541 L20.01464 116.24154 L20.18382 116.68808 L20.35299 117.13462 L20.71274 117.45327 L21.07248 117.77192 L21.53624 117.88596 L22.00000 118.00000 L22.46376 117.88596 L22.92752 117.77192 L23.28726 117.45327 L23.64701 117.13462 L23.81618 116.68808 z"/>
<path fill="#000000" stroke="#000000" d="M23.81618 116.68808 L23.64701 117.13462 L23.28726 117.45327 L22.92752 117.77192 L22.46376 117.88596 L22.00000 118.00000 L21.53624 117.88596 L21.07248 117.77192 L20.71274 117.45327 L20.35299 117.13462 L20.18382 116.68808 L20.01464 116.24154 L20.07259 115.76541 L20.13054 115.28928 L20.40207 114.89620 L20.67360 114.50312 L21.09788 114.28052 L21.52217 114.05792 L22.00000 114.05792 L22.47783 114.05792 L22.90212 114.28052 L23.32640 114.50312 L23.59793 114.89620 L23.86946 115.28928 L23.92741 115.76541 L23.98536 116.24154 z"/>
</svg>