<?xml version="1.0" encoding="UTF-8"?>
<!-- Generated by jsxcad -->
<!DOCTYPE svg PUBLIC "-//W3C//DTD SVG 1.1 Tiny//EN" "http://www.w3.org/Graphics/SVG/1.1/DTD/svg11-tiny.dtd">
<svg baseProfile="tiny" height="179.94406mm" width="165.00000mm" viewBox="-0.00000 100.05594 165.00000 179.94406" version="1.1" stroke="black" stroke-width=".1" fill="none" xmlns="http://www.w3.org/2000/svg">
<path fill="#000000" stroke="#000000" d="M7.51370 177.00000 L157.48630 177.00000 L157.48630 275.36986 L157.15444 276.82652 L156.40869 278.11804 L155.32136 279.12794 L153.97581 279.77724 L152.50000 280.00000 L12.50000 280.00000 L11.02419 279.77724 L9.67864 279.12794 L8.59131 278.11804 L7.84556 276.82652 L7.51370 275.36986 z"/>
<path fill="#000000" stroke="#000000" d="M8.17148 102.49723 L9.09669 101.33702 L10.32777 100.49651 L11.75420 100.05594 L153.24580 100.05594 L154.67223 100.49651 L155.90331 101.33702 L156.82852 102.49723 L157.02617 103.00000 L7.97383 103.00000 z"/>
<path fill="#000000" stroke="#000000" d="M0.00000 103.00000 L165.00000 103.00000 L165.00000 177.00000 L0.00000 177.00000 z M23.98536 116.24154 L23.86946 115.28928 L23.32640 114.50312 L22.47783 114.05792 L21.52217 114.05792 L20.67360 114.50312 L20.13054 115.28928 L20.01464 116.24154 L20.35299 117.13462 L21.07248 117.77192 L22.00000 118.00000 L22.92752 117.77192 L23.64701 117.13462 z M23.98536 164.24154 L23.86946 163.28928 L23.32640 162.50312 L22.47783 162.05792 L21.52217 162.05792 L20.67360 162.50312 L20.13054 163.28928 L20.01464 164.24154 L20.35299 165.13462 L21.07248 165.77192 L22.00000 166.00000 L22.92752 165.77192 L23.64701 165.13462 z M144.98536 110.24154 L144.86946 109.28928 L144.32640 108.50312 L143.47783 108.05792 L142.52217 108.05792 L141.67360 108.50312 L141.13054 109.28928 L141.01464 110.24154 L141.35299 111.13462 L142.07248 111.77192 L143.00000 112.00000 L143.92752 111.77192 L144.64701 111.13462 z M144.98536 170.24154 L144.86946 169.28928 L144.32640 168.50312 L143.47783 168.05792 L142.52217 168.05792 L141.67360 168.50312 L141.13054 169.28928 L141.01464 170.24154 L141.35299 171.13462 L142.07248 171.77192 L143.00000 172.00000 L143.92752 171.77192 L144.64701 171.13462 z"/>
<path fill="#000000" stroke="#000000" d="M144.64701 111.13462 L143.92752 111.77192 L143.00000 112.00000 L142.07248 111.77192 L141.35299 111.13462 L141.01464 110.24154 L141.13054 109.28928 L141.67360 108.50312 L142.52217 108.05792 L143.47783 108.05792 L144.32640 108.50312 L144.86946 109.28928 L144.98536 110.24154 z"/>
<path fill="#000000" stroke="#000000" d="M144.64701 171.13462 L143.92752 171.77192 L143.00000 172.00000 L142.07248 171.77192 L141.35299 171.13462 L141.01464 170.24154 L141.13054 169.28928 L141.67360 168.50312 L142.52217 168.05792 L143.47783 168.05792 L144.32640 168.50312 L144.86946 169.28928 L144.98536 170.24154 z"/>
<path fill="#000000" stroke="#000000" d="M23.64701 165.13462 L22.92752 165.77192 L22.00000 166.00000 L21.07248 165.77192 L20.35299 165.13462 L20.01464 164.24154 L20.13054 163.28928 L20.67360 162.50312 L21.52217 162.05792 L22.47783 162.05792 L23.32640 162.50312 L23.86946 163.28928 L23.98536 164.24154 z"/>
<path fill="#000000" stroke="#000000" d="M23.64701 117.13462 L22.92752 117.77192 L22.00000 118.00000 L21.07248 117.77192 L20.35299 117.13462 L20.01464 116.24154 L20.13054 115.28928 L20.67360 114.50312 L21.52217 114.05792 L22.47783 114.05792 L23.32640 114.50312 L23.86946 115.28928 L23.98536 116.24154 z"/>
</svg>