<?xml version="1.0" encoding="UTF-8"?>
<!-- Generated by jsxcad -->
<!DOCTYPE svg PUBLIC "-//W3C//DTD SVG 1.1 Tiny//EN" "http://www.w3.org/Graphics/SVG/1.1/DTD/svg11-tiny.dtd">
<svg baseProfile="tiny" height="80.00000mm" width="165.00000mm" viewBox="-0.00000 -0.00000 165.00000 80.00000" version="1.1" stroke="black" stroke-width=".1" fill="none" xmlns="http://www.w3.org/2000/svg">
<path fill="#000000" stroke="#000000" d="M17.50000 0.00000 L147.50000 0.00000 L147.50000 3.00000 L17.50000 3.00000 z"/>
<path fill="#000000" stroke="#000000" d="M17.50000 77.00000 L147.50000 77.00000 L147.50000 80.00000 L17.50000 80.00000 z"/>
<path fill="#000000" stroke="#000000" d="M0.00000 3.00000 L165.00000 3.00000 L165.00000 77.00000 L0.00000 77.00000 z M23.98536 16.24154 L23.92741 15.76541 L23.86946 15.28928 L23.59793 14.89620 L23.32640 14.50312 L22.90212 14.28052 L22.47783 14.05792 L22.00000 14.05792 L21.52217 14.05792 L21.09788 14.28052 L20.67360 14.50312 L20.40207 14.89620 L20.13054 15.28928 L20.07259 15.76541 L20.01464 16.24154 L20.18382 16.68808 L20.35299 17.13462 L20.71274 17.45327 L21.07248 17.77192 L21.53624 17.88596 L22.00000 18.00000 L22.46376 17.88596 L22.92752 17.77192 L23.28726 17.45327 L23.64701 17.13462 L23.81618 16.68808 z M23.98536 64.24154 L23.92741 63.76541 L23.86946 63.28928 L23.59793 62.89620 L23.32640 62.50312 L22.90212 62.28052 L22.47783 62.05792 L22.00000 62.05792 L21.52217 62.05792 L21.09788 62.28052 L20.67360 62.50312 L20.40207 62.89620 L20.13054 63.28928 L20.07259 63.76541 L20.01464 64.24154 L20.18382 64.68808 L20.35299 65.13462 L20.71274 65.45327 L21.07248 65.77192 L21.53624 65.88596 L22.00000 66.00000 L22.46376 65.88596 L22.92752 65.77192 L23.28726 65.45327 L23.64701 65.13462 L23.81618 64.68808 z M144.98536 10.24154 L144.92741 9.76541 L144.86946 9.28928 L144.59793 8.89620 L144.32640 8.50312 L143.90212 8.28052 L143.47783 8.05792 L143.00000 8.05792 L142.52217 8.05792 L142.09788 8.28052 L141.67360 8.50312 L141.40207 8.89620 L141.13054 9.28928 L141.07259 9.76541 L141.01464 10.24154 L141.18382 10.68808 L141.35299 11.13462 L141.71274 11.45327 L142.07248 11.77192 L142.53624 11.88596 L143.00000 12.00000 L143.46376 11.88596 L143.92752 11.77192 L144.28726 11.45327 L144.64701 11.13462 L144.81618 10.68808 z M144.98536 70.24154 L144.92741 69.76541 L144.86946 69.28928 L144.59793 68.89620 L144.32640 68.50312 L143.90212 68.28052 L143.47783 68.05792 L143.00000 68.05792 L142.52217 68.05792 L142.09788 68.28052 L141.67360 68.50312 L141.40207 68.89620 L141.13054 69.28928 L141.07259 69.76541 L141.01464 70.24154 L141.18382 70.68808 L141.35299 71.13462 L141.71274 71.45327 L142.07248 71.77192 L142.53624 71.88596 L143.00000 72.00000 L143.46376 71.88596 L143.92752 71.77192 L144.28726 71.45327 L144.64701 71.13462 L144.81618 70.68808 z"/>
<path fill="#000000" stroke="#000000" d="M144.81618 10.68808 L144.64701 11.13462 L144.28726 11.45327 L143.92752 11.77192 L143.46376 11.88596 L143.00000 12.00000 L142.53624 11.88596 L142.07248 11.77192 L141.71274 11.45327 L141.35299 11.13462 L141.18382 10.68808 L141.01464 10.24154 L141.07259 9.76541 L141.13054 9.28928 L141.40207 8.89620 L141.67360 8.50312 L142.09788 8.28052 L142.52217 8.05792 L143.00000 8.05792 L143.47783 8.05792 L143.90212 8.28052 L144.32640 8.50312 L144.59793 8.89620 L144.86946 9.28928 L144.92741 9.76541 L144.98536 10.24154 z"/>
<path fill="#000000" stroke="#000000" d="M144.81618 70.68808 L144.64701 71.13462 L144.28726 71.45327 L143.92752 71.77192 L143.46376 71.88596 L143.00000 72.00000 L142.53624 71.88596 L142.07248 71.77192 L141.71274 71.45327 L141.35299 71.13462 L141.18382 70.68808 L141.01464 70.24154 L141.07259 69.76541 L141.13054 69.28928 L141.40207 68.89620 L141.67360 68.50312 L142.09788 68.28052 L142.52217 68.05792 L143.00000 68.05792 L143.47783 68.05792 L143.90212 68.28052 L144.32640 68.50312 L144.59793 68.89620 L144.86946 69.28928 L144.92741 69.76541 L144.98536 70.24154 z"/>
<path fill="#000000" stroke="#000000" d="M23.81618 64.68808 L23.64701 65.13462 L23.28726 65.45327 L22.92752 65.77192 L22.46376 65.88596 L22.00000 66.00000 L21.53624 65.88596 L21.07248 65.77192 L20.71274 65.45327 L20.35299 65.13462 L20.18382 64.68808 L20.01464 64.24154 L20.07259 63.76541 L20.13054 63.28928 L20.40207 62.89620 L20.67360 62.50312 L21.09788 62.28052 L21.52217 62.05792 L22.00000 62.05792 L22.47783 62.05792 L22.90212 62.28052 L23.32640 62.50312 L23.59793 62.89620 L23.86946 63.28928 L23.92741 63.76541 L23.98536 64.24154 z"/>
<path fill="#000000" stroke="#000000" d="M23.81618 16.68808 L23.64701 17.13462 L23.28726 17.45327 L22.92752 17.77192 L22.46376 17.88596 L22.00000 18.00000 L21.53624 17.88596 L21.07248 17.77192 L20.71274 17.45327 L20.35299 17.13462 L20.18382 16.68808 L20.01464 16.24154 L20.07259 15.76541 L20.13054 15.28928 L20.40207 14.89620 L20.67360 14.50312 L21.09788 14.28052 L21.52217 14.05792 L22.00000 14.05792 L22.47783 14.05792 L22.90212 14.28052 L23.32640 14.50312 L23.59793 14.89620 L23.86946 15.28928 L23.92741 15.76541 L23.98536 16.24154 z"/>
</svg>