<?xml version="1.0" encoding="UTF-8"?>
<!-- Generated by jsxcad -->
<!DOCTYPE svg PUBLIC "-//W3C//DTD SVG 1.1 Tiny//EN" "http://www.w3.org/Graphics/SVG/1.1/DTD/svg11-tiny.dtd">
<svg baseProfile="tiny" height="74.00000mm" width="165.00000mm" viewBox="-0.00000 -0.00000 165.00000 74.00000" version="1.1" stroke="black" stroke-width=".1" fill="none" xmlns="http://www.w3.org/2000/svg">
<path fill="#000000" stroke="#000000" d="M0.00000 0.00000 L165.00000 0.00000 L165.00000 74.00000 L0.00000 74.00000 z M23.98536 13.24154 L23.86946 12.28928 L23.32640 11.50312 L22.47783 11.05792 L21.52217 11.05792 L20.67360 11.50312 L20.13054 12.28928 L20.01464 13.24154 L20.35299 14.13462 L21.07248 14.77192 L22.00000 15.00000 L22.92752 14.77192 L23.64701 14.13462 z M23.98536 61.24154 L23.86946 60.28928 L23.32640 59.50312 L22.47783 59.05792 L21.52217 59.05792 L20.67360 59.50312 L20.13054 60.28928 L20.01464 61.24154 L20.35299 62.13462 L21.07248 62.77192 L22.00000 63.00000 L22.92752 62.77192 L23.64701 62.13462 z M144.98536 7.24154 L144.86946 6.28928 L144.32640 5.50312 L143.47783 5.05792 L142.52217 5.05792 L141.67360 5.50312 L141.13054 6.28928 L141.01464 7.24154 L141.35299 8.13462 L142.07248 8.77192 L143.00000 9.00000 L143.92752 8.77192 L144.64701 8.13462 z M144.98536 67.24154 L144.86946 66.28928 L144.32640 65.50312 L143.47783 65.05792 L142.52217 65.05792 L141.67360 65.50312 L141.13054 66.28928 L141.01464 67.24154 L141.35299 68.13462 L142.07248 68.77192 L143.00000 69.00000 L143.92752 68.77192 L144.64701 68.13462 z"/>
<path fill="#000000" stroke="#000000" d="M144.64701 8.13462 L143.92752 8.77192 L143.00000 9.00000 L142.07248 8.77192 L141.35299 8.13462 L141.01464 7.24154 L141.13054 6.28928 L141.67360 5.50312 L142.52217 5.05792 L143.47783 5.05792 L144.32640 5.50312 L144.86946 6.28928 L144.98536 7.24154 z"/>
<path fill="#000000" stroke="#000000" d="M144.64701 68.13462 L143.92752 68.77192 L143.00000 69.00000 L142.07248 68.77192 L141.35299 68.13462 L141.01464 67.24154 L141.13054 66.28928 L141.67360 65.50312 L142.52217 65.05792 L143.47783 65.05792 L144.32640 65.50312 L144.86946 66.28928 L144.98536 67.24154 z"/>
<path fill="#000000" stroke="#000000" d="M23.64701 62.13462 L22.92752 62.77192 L22.00000 63.00000 L21.07248 62.77192 L20.35299 62.13462 L20.01464 61.24154 L20.13054 60.28928 L20.67360 59.50312 L21.52217 59.05792 L22.47783 59.05792 L23.32640 59.50312 L23.86946 60.28928 L23.98536 61.24154 z"/>
<path fill="#000000" stroke="#000000" d="M23.64701 14.13462 L22.92752 14.77192 L22.00000 15.00000 L21.07248 14.77192 L20.35299 14.13462 L20.01464 13.24154 L20.13054 12.28928 L20.67360 11.50312 L21.52217 11.05792 L22.47783 11.05792 L23.32640 11.50312 L23.86946 12.28928 L23.98536 13.24154 z"/>
</svg>