<?xml version="1.0" encoding="UTF-8"?>
<!-- Generated by jsxcad -->
<!DOCTYPE svg PUBLIC "-//W3C//DTD SVG 1.1 Tiny//EN" "http://www.w3.org/Graphics/SVG/1.1/DTD/svg11-tiny.dtd">
<svg baseProfile="tiny" height="179.94406mm" width="165.00000mm" viewBox="-0.00000 100.05594 165.00000 179.94406" version="1.1" stroke="black" stroke-width=".1" fill="none" xmlns="http://www.w3.org/2000/svg">
<path fill="#000000" stroke="#000000" d="M7.51370 177.00000 L157.48630 177.00000 L157.48630 275.36986 L157.15444 276.82652 L156.40869 278.11804 L155.32136 279.12794 L153.97581 279.77724 L152.50000 280.00000 L12.50000 280.00000 L11.02419 279.77724 L9.67864 279.12794 L8.59131 278.11804 L7.84556 276.82652 L7.51370 275.36986 z"/>
<path fill="#000000" stroke="#000000" d="M8.17148 102.49723 L9.09669 101.33702 L10.32777 100.49651 L11.75420 100.05594 L153.24580 100.05594 L154.67223 100.49651 L155.90331 101.33702 L156.82852 102.49723 L157.02617 103.00000 L7.97383 103.00000 z"/>
<path fill="#000000" stroke="#000000" d="M0.00000 103.00000 L165.00000 103.00000 L165.00000 177.00000 L0.00000 177.00000 z M19.05520 116.42676 L19.31475 117.33770 L19.40790 117.46096 L19.98009 118.21810 L20.11153 118.29935 L20.91893 118.79845 L21.07028 118.82666 L22.00000 119.00000 L22.15135 118.97178 L23.08107 118.79845 L23.21250 118.71720 L24.01991 118.21810 L24.11306 118.09484 L24.68525 117.33770 L24.72750 117.18941 L24.98705 116.27847 L24.97282 116.12451 L24.88541 115.17878 L24.81632 115.04025 L24.39192 114.18928 L24.27778 114.08545 L23.57659 113.44767 L23.43333 113.39221 L22.55335 113.05147 L22.39841 113.05147 L21.44665 113.05147 L21.30340 113.10694 L20.42341 113.44767 L20.30927 113.55150 L19.60808 114.18928 L19.53899 114.32781 L19.11459 115.17878 L19.10036 115.33274 L19.01295 116.27847 z M24.98705 164.27847 L24.97282 164.12451 L24.88541 163.17878 L24.81632 163.04025 L24.39192 162.18928 L24.27778 162.08545 L23.57659 161.44767 L23.43333 161.39221 L22.55335 161.05147 L22.39841 161.05147 L21.44665 161.05147 L21.30340 161.10694 L20.42341 161.44767 L20.30927 161.55150 L19.60808 162.18928 L19.53899 162.32781 L19.11459 163.17878 L19.10036 163.33274 L19.01295 164.27847 L19.05520 164.42676 L19.31475 165.33770 L19.40790 165.46096 L19.98009 166.21810 L20.11153 166.29935 L20.91893 166.79845 L21.07028 166.82666 L22.00000 167.00000 L22.15135 166.97178 L23.08107 166.79845 L23.21250 166.71720 L24.01991 166.21810 L24.11306 166.09484 L24.68525 165.33770 L24.72750 165.18941 z M145.98705 110.27847 L145.97282 110.12451 L145.88541 109.17878 L145.81632 109.04025 L145.39192 108.18928 L145.27778 108.08545 L144.57659 107.44767 L144.43333 107.39221 L143.55335 107.05147 L143.39841 107.05147 L142.44665 107.05147 L142.30340 107.10694 L141.42341 107.44767 L141.30927 107.55150 L140.60808 108.18928 L140.53899 108.32781 L140.11459 109.17878 L140.10036 109.33274 L140.01295 110.27847 L140.05520 110.42676 L140.31475 111.33770 L140.40790 111.46096 L140.98009 112.21810 L141.11153 112.29935 L141.91893 112.79845 L142.07028 112.82666 L143.00000 113.00000 L143.15135 112.97178 L144.08107 112.79845 L144.21250 112.71720 L145.01991 112.21810 L145.11306 112.09484 L145.68525 111.33770 L145.72750 111.18941 z M145.98705 170.27847 L145.97282 170.12451 L145.88541 169.17878 L145.81632 169.04025 L145.39192 168.18928 L145.27778 168.08545 L144.57659 167.44767 L144.43333 167.39221 L143.55335 167.05147 L143.39841 167.05147 L142.44665 167.05147 L142.30340 167.10694 L141.42341 167.44767 L141.30927 167.55150 L140.60808 168.18928 L140.53899 168.32781 L140.11459 169.17878 L140.10036 169.33274 L140.01295 170.27847 L140.05520 170.42676 L140.31475 171.33770 L140.40790 171.46096 L140.98009 172.21810 L141.11153 172.29935 L141.91893 172.79845 L142.07028 172.82666 L143.00000 173.00000 L143.15135 172.97178 L144.08107 172.79845 L144.21250 172.71720 L145.01991 172.21810 L145.11306 172.09484 L145.68525 171.33770 L145.72750 171.18941 z"/>
<path fill="#000000" stroke="#000000" d="M140.01295 110.27847 L140.10036 109.33274 L140.11459 109.17878 L140.53899 108.32781 L140.60808 108.18928 L141.30927 107.55150 L141.42341 107.44767 L142.30340 107.10694 L142.44665 107.05147 L143.39841 107.05147 L143.55335 107.05147 L144.43333 107.39221 L144.57659 107.44767 L145.27778 108.08545 L145.39192 108.18928 L145.81632 109.04025 L145.88541 109.17878 L145.97282 110.12451 L145.98705 110.27847 L145.72750 111.18941 L145.68525 111.33770 L145.11306 112.09484 L145.01991 112.21810 L144.21250 112.71720 L144.08107 112.79845 L143.15135 112.97178 L143.00000 113.00000 L142.07028 112.82666 L141.91893 112.79845 L141.11153 112.29935 L140.98009 112.21810 L140.40790 111.46096 L140.31475 111.33770 L140.05520 110.42676 z M144.98536 110.24154 L144.92741 109.76541 L144.86946 109.28928 L144.59793 108.89620 L144.32640 108.50312 L143.90212 108.28052 L143.47783 108.05792 L143.00000 108.05792 L142.52217 108.05792 L142.09788 108.28052 L141.67360 108.50312 L141.40207 108.89620 L141.13054 109.28928 L141.07259 109.76541 L141.01464 110.24154 L141.18382 110.68808 L141.35299 111.13462 L141.71274 111.45327 L142.07248 111.77192 L142.53624 111.88596 L143.00000 112.00000 L143.46376 111.88596 L143.92752 111.77192 L144.28726 111.45327 L144.64701 111.13462 L144.81618 110.68808 z"/>
<path fill="#000000" stroke="#000000" d="M144.81618 110.68808 L144.64701 111.13462 L144.28726 111.45327 L143.92752 111.77192 L143.46376 111.88596 L143.00000 112.00000 L142.53624 111.88596 L142.07248 111.77192 L141.71274 111.45327 L141.35299 111.13462 L141.18382 110.68808 L141.01464 110.24154 L141.07259 109.76541 L141.13054 109.28928 L141.40207 108.89620 L141.67360 108.50312 L142.09788 108.28052 L142.52217 108.05792 L143.00000 108.05792 L143.47783 108.05792 L143.90212 108.28052 L144.32640 108.50312 L144.59793 108.89620 L144.86946 109.28928 L144.92741 109.76541 L144.98536 110.24154 z"/>
<path fill="#000000" stroke="#000000" d="M140.01295 170.27847 L140.10036 169.33274 L140.11459 169.17878 L140.53899 168.32781 L140.60808 168.18928 L141.30927 167.55150 L141.42341 167.44767 L142.30340 167.10694 L142.44665 167.05147 L143.39841 167.05147 L143.55335 167.05147 L144.43333 167.39221 L144.57659 167.44767 L145.27778 168.08545 L145.39192 168.18928 L145.81632 169.04025 L145.88541 169.17878 L145.97282 170.12451 L145.98705 170.27847 L145.72750 171.18941 L145.68525 171.33770 L145.11306 172.09484 L145.01991 172.21810 L144.21250 172.71720 L144.08107 172.79845 L143.15135 172.97178 L143.00000 173.00000 L142.07028 172.82666 L141.91893 172.79845 L141.11153 172.29935 L140.98009 172.21810 L140.40790 171.46096 L140.31475 171.33770 L140.05520 170.42676 z M144.98536 170.24154 L144.92741 169.76541 L144.86946 169.28928 L144.59793 168.89620 L144.32640 168.50312 L143.90212 168.28052 L143.47783 168.05792 L143.00000 168.05792 L142.52217 168.05792 L142.09788 168.28052 L141.67360 168.50312 L141.40207 168.89620 L141.13054 169.28928 L141.07259 169.76541 L141.01464 170.24154 L141.18382 170.68808 L141.35299 171.13462 L141.71274 171.45327 L142.07248 171.77192 L142.53624 171.88596 L143.00000 172.00000 L143.46376 171.88596 L143.92752 171.77192 L144.28726 171.45327 L144.64701 171.13462 L144.81618 170.68808 z"/>
<path fill="#000000" stroke="#000000" d="M144.81618 170.68808 L144.64701 171.13462 L144.28726 171.45327 L143.92752 171.77192 L143.46376 171.88596 L143.00000 172.00000 L142.53624 171.88596 L142.07248 171.77192 L141.71274 171.45327 L141.35299 171.13462 L141.18382 170.68808 L141.01464 170.24154 L141.07259 169.76541 L141.13054 169.28928 L141.40207 168.89620 L141.67360 168.50312 L142.09788 168.28052 L142.52217 168.05792 L143.00000 168.05792 L143.47783 168.05792 L143.90212 168.28052 L144.32640 168.50312 L144.59793 168.89620 L144.86946 169.28928 L144.92741 169.76541 L144.98536 170.24154 z"/>
<path fill="#000000" stroke="#000000" d="M19.01295 164.27847 L19.10036 163.33274 L19.11459 163.17878 L19.53899 162.32781 L19.60808 162.18928 L20.30927 161.55150 L20.42341 161.44767 L21.30340 161.10694 L21.44665 161.05147 L22.39841 161.05147 L22.55335 161.05147 L23.43333 161.39221 L23.57659 161.44767 L24.27778 162.08545 L24.39192 162.18928 L24.81632 163.04025 L24.88541 163.17878 L24.97282 164.12451 L24.98705 164.27847 L24.72750 165.18941 L24.68525 165.33770 L24.11306 166.09484 L24.01991 166.21810 L23.21250 166.71720 L23.08107 166.79845 L22.15135 166.97178 L22.00000 167.00000 L21.07028 166.82666 L20.91893 166.79845 L20.11153 166.29935 L19.98009 166.21810 L19.40790 165.46096 L19.31475 165.33770 L19.05520 164.42676 z M23.98536 164.24154 L23.92741 163.76541 L23.86946 163.28928 L23.59793 162.89620 L23.32640 162.50312 L22.90212 162.28052 L22.47783 162.05792 L22.00000 162.05792 L21.52217 162.05792 L21.09788 162.28052 L20.67360 162.50312 L20.40207 162.89620 L20.13054 163.28928 L20.07259 163.76541 L20.01464 164.24154 L20.18382 164.68808 L20.35299 165.13462 L20.71274 165.45327 L21.07248 165.77192 L21.53624 165.88596 L22.00000 166.00000 L22.46376 165.88596 L22.92752 165.77192 L23.28726 165.45327 L23.64701 165.13462 L23.81618 164.68808 z"/>
<path fill="#000000" stroke="#000000" d="M23.81618 164.68808 L23.64701 165.13462 L23.28726 165.45327 L22.92752 165.77192 L22.46376 165.88596 L22.00000 166.00000 L21.53624 165.88596 L21.07248 165.77192 L20.71274 165.45327 L20.35299 165.13462 L20.18382 164.68808 L20.01464 164.24154 L20.07259 163.76541 L20.13054 163.28928 L20.40207 162.89620 L20.67360 162.50312 L21.09788 162.28052 L21.52217 162.05792 L22.00000 162.05792 L22.47783 162.05792 L22.90212 162.28052 L23.32640 162.50312 L23.59793 162.89620 L23.86946 163.28928 L23.92741 163.76541 L23.98536 164.24154 z"/>
<path fill="#000000" stroke="#000000" d="M19.01295 116.27847 L19.10036 115.33274 L19.11459 115.17878 L19.53899 114.32781 L19.60808 114.18928 L20.30927 113.55150 L20.42341 113.44767 L21.30340 113.10694 L21.44665 113.05147 L22.39841 113.05147 L22.55335 113.05147 L23.43333 113.39221 L23.57659 113.44767 L24.27778 114.08545 L24.39192 114.18928 L24.81632 115.04025 L24.88541 115.17878 L24.97282 116.12451 L24.98705 116.27847 L24.72750 117.18941 L24.68525 117.33770 L24.11306 118.09484 L24.01991 118.21810 L23.21250 118.71720 L23.08107 118.79845 L22.15135 118.97178 L22.00000 119.00000 L21.07028 118.82666 L20.91893 118.79845 L20.11153 118.29935 L19.98009 118.21810 L19.40790 117.46096 L19.31475 117.33770 L19.05520 116.42676 z M23.98536 116.24154 L23.92741 115.76541 L23.86946 115.28928 L23.59793 114.89620 L23.32640 114.50312 L22.90212 114.28052 L22.47783 114.05792 L22.00000 114.05792 L21.52217 114.05792 L21.09788 114.28052 L20.67360 114.50312 L20.40207 114.89620 L20.13054 115.28928 L20.07259 115.76541 L20.01464 116.24154 L20.18382 116.68808 L20.35299 117.13462 L20.71274 117.45327 L21.07248 117.77192 L21.53624 117.88596 L22.00000 118.00000 L22.46376 117.88596 L22.92752 117.77192 L23.28726 117.45327 L23.64701 117.13462 L23.81618 116.68808 z"/>
<path fill="#000000" stroke="#000000" d="M23.81618 116.68808 L23.64701 117.13462 L23.28726 117.45327 L22.92752 117.77192 L22.46376 117.88596 L22.00000 118.00000 L21.53624 117.88596 L21.07248 117.77192 L20.71274 117.45327 L20.35299 117.13462 L20.18382 116.68808 L20.01464 116.24154 L20.07259 115.76541 L20.13054 115.28928 L20.40207 114.89620 L20.67360 114.50312 L21.09788 114.28052 L21.52217 114.05792 L22.00000 114.05792 L22.47783 114.05792 L22.90212 114.28052 L23.32640 114.50312 L23.59793 114.89620 L23.86946 115.28928 L23.92741 115.76541 L23.98536 116.24154 z"/>
</svg>